<?xml version="1.0" encoding="UTF-8" standalone="no"?>
<!-- Created with Inkscape (http://www.inkscape.org/) -->

<svg
   xmlns:dc="http://purl.org/dc/elements/1.1/"
   xmlns:cc="http://creativecommons.org/ns#"
   xmlns:rdf="http://www.w3.org/1999/02/22-rdf-syntax-ns#"
   xmlns:svg="http://www.w3.org/2000/svg"
   xmlns="http://www.w3.org/2000/svg"
   xmlns:sodipodi="http://sodipodi.sourceforge.net/DTD/sodipodi-0.dtd"
   xmlns:inkscape="http://www.inkscape.org/namespaces/inkscape"
   width="210mm"
   height="297mm"
   viewBox="0 0 210 297"
   version="1.1"
   id="svg8"
   sodipodi:docname="rip.svg"
   inkscape:version="0.92.4 (5da689c313, 2019-01-14)">
  <defs
     id="defs2" />
  <sodipodi:namedview
     id="base"
     pagecolor="#ffffff"
     bordercolor="#666666"
     borderopacity="1.0"
     inkscape:pageopacity="0.0"
     inkscape:pageshadow="2"
     inkscape:zoom="0.70000001"
     inkscape:cx="895.07441"
     inkscape:cy="636.47022"
     inkscape:document-units="mm"
     inkscape:current-layer="layer1"
     showgrid="false"
     inkscape:window-width="1920"
     inkscape:window-height="1017"
     inkscape:window-x="1272"
     inkscape:window-y="-8"
     inkscape:window-maximized="1" />
  <metadata
     id="metadata5">
    <rdf:RDF>
      <cc:Work
         rdf:about="">
        <dc:format>image/svg+xml</dc:format>
        <dc:type
           rdf:resource="http://purl.org/dc/dcmitype/StillImage" />
      </cc:Work>
    </rdf:RDF>
  </metadata>
  <g
     inkscape:label="Layer 1"
     inkscape:groupmode="layer"
     id="layer1">
    <path
       style="fill:none;stroke-width:0.71428573"
       d=""
       id="path3740"
       inkscape:connector-curvature="0"
       transform="scale(0.26458333)" />
    <path
       style="fill:#ffffff;stroke:#000000;stroke-width:0.26458332px;stroke-linecap:butt;stroke-linejoin:miter;stroke-opacity:1"
       d="M 202.40639,7.4700493 8.3154022,7.659184 H 6.9924856 l -0.070797,40.443538 1.4174846,-0.826822 1.4407387,0.77978 1.4650271,1.133792 1.180807,-0.945171 1.653645,-0.968401 2.315104,0.921385 1.03973,-0.732261 1.039213,0.708474 2.362647,-0.283183 0.661458,-0.23667 0.306958,0.850583 1.133781,-0.377746 1.535824,1.322917 0.826823,0.803063 0.873848,-0.236167 0.118339,-0.354515 -0.259932,-0.189124 -0.236162,-0.496094 0.684713,-0.756021 0.921391,-0.330226 0.259933,-0.567399 1.133779,0.543639 0.661458,0.519854 0.189138,0.543136 1.275889,-0.330729 0.684713,-1.58287 1.393714,1.441265 c 0,0 3.212946,0.850424 3.331064,0.826823 0.118118,-0.02363 1.960602,-0.803566 1.960602,-0.803566 l 2.173513,-0.708475 2.268077,1.08675 c 0,0 2.503802,0.75602 2.59829,0.75602 0.09449,0 1.488281,-1.346676 1.488281,-1.346676 l 1.062985,-0.708501 4.677751,1.464521 0.519864,-0.590655 1.015442,0.165364 0.850596,0.732235 1.252119,-0.685218 0.613915,-0.637699 1.181325,1.133792 0.80305,-0.165364 1.086755,-0.30697 1.181325,0.472334 0.945161,0.519854 0.803052,-0.54311 c 0,0 1.110089,-0.283713 1.204577,-0.283713 0.09449,0 1.01596,0.354515 1.01596,0.354515 l 1.535306,0.283184 0.898136,-0.87384 1.180806,-1.2759 1.819011,0.685218 1.322916,0.897625 1.181325,-0.354488 1.512051,-0.09406 1.25212,-0.236167 1.157552,-0.77978 1.936835,0.496094 1.960602,1.204568 0.330729,-1.039204 2.197282,0.189125 0.921391,0.921385 1.488281,-0.567399 0.212392,-0.236167 0.590661,0.638201 1.204576,-0.402034 0.803569,-0.543111 0.826823,-0.519879 1.039214,0.874368 0.543634,-0.449077 1.062985,-0.259927 1.180806,0.779807 0.945163,0.212381 0.425297,-0.708475 0.354499,-0.543639 1.22835,0.09456 0.89762,0.543639 0.873847,-0.543639 0.732256,-0.425292 0.898136,0.756021 1.535305,0.51988 1.62988,-1.133793 2.10271,0.472334 0.37775,-0.637698 c 0,0 1.13402,0.212275 1.25213,0.283183 0.11811,0.07088 1.20509,0.378275 1.20509,0.378275 l 0.35398,-0.614442 0.96894,0.189151 0.21239,-0.401532 1.03921,1.08675 1.46503,-0.23667 0.82682,0.378275 1.11001,-0.165365 0.85059,-0.614442 1.09606,0.355547 0.38396,-0.234103 0.41754,0.417539 0.53485,-0.183436 0.16692,-0.434604 0.23358,0.35089 0.6351,0.451115 1.05213,-0.567929 1.00252,0.317315 1.0356,-0.300778 1.20251,-0.317288 c 0,0 0.48458,0.801714 0.60151,0.885216 0.11693,0.08353 0.60152,-0.183436 0.60152,-0.183436 l 1.28622,-0.200501 1.0356,0.333825 0.78496,-0.818568 0.78497,0.467678 c 0,0 0.81893,0.501464 0.93586,0.534855 0.11693,0.03342 0.63459,-0.484717 0.63459,-0.484717 l 1.03559,-0.300778 c 0,0 0.75159,0.334221 0.83509,0.401029 0.0835,0.06683 0.73489,0.183964 0.88522,0.183964 0.15034,0 0.41806,-0.551391 0.41806,-0.551391 l 0.78497,0.234103 0.90175,0.317288 0.96893,-0.618066 0.5178,0.618066 1.18598,0.1669 0.65164,-0.818542 0.65164,-0.300752 0.43408,0.501253 0.76843,0.467678 0.48472,-0.401003 0.33383,0.367401 0.55139,0.05014 0.50126,0.551392 0.56792,-0.200528 0.0832,0.25064 0.41755,-0.06665 0.6351,-0.601531 0.53433,-0.3674 0.53434,-0.467678 0.28422,0.484214 0.30076,-0.50075 0.66817,0.935329 -0.10025,-0.918793 0.56793,1.002004 0.35088,-0.300249 0.36742,-0.384466 0.0331,-0.350891 0.38447,0.735357 0.73484,0.434075 -0.23358,-0.484187 0.4005,0.283686 0.28422,-0.985467 0.70176,0.517816 0.50075,-0.517816 1.68723,0.684715 0.43357,-0.461989 0.85059,0.755518 0.51935,-0.566896 0.89762,-0.613913 0.709,0.661458 0.75603,0.566897 0.47232,-1.133793 0.70848,0.424789 0.23668,0.567399 0.42478,-0.614416 1.37046,0.614416 0.4253,-0.567399 0.99219,0.850582 0.61391,-0.992187 0.94516,0.803063 0.61392,-0.85008 1.18132,0.566896 0.47233,-0.566896 -0.18862,1.08675 0.89762,-1.08675 1.13378,1.180809 -0.047,-0.755518 0.47232,0.708502 0.8506,-0.850609 1.22835,0.850609 0.56689,-0.850609 0.51986,0.709004 V 47.72495 l 1.6061,0.897626 0.8506,-0.519854 1.32292,0.756021 1.08675,-0.945171 0.51987,0.850609 1.13378,-1.039231 0.61391,0.85008 0.47284,-0.51935 0.47233,0.661458 0.37775,-0.803566 0.709,0.75602 -0.14159,-1.039204 1.08624,1.322917 0.0475,-0.472837 0.4253,0.472837 1.32291,-1.134295 1.27538,0.803566 0.80356,-0.661459 0.51935,0.613913 -0.094,-0.708475 1.27538,1.039204 0.85059,-0.944642 0.47232,0.756021 0.94516,-0.709004 0.66146,0.378275 0.56689,-0.756021 0.61392,0.425292 0.37827,-0.425292 1.03922,0.613913 -0.1416,-0.330729 1.51205,0.992187 0.99219,-1.133766 0.4253,0.472308 0.56689,-0.472308 0.75603,0.803037 0.94464,-0.613913 0.75603,0.661459 0.42529,-0.850583 0.4253,0.283687 0.51935,-0.709004 0.75603,0.378274 0.37826,0.661459 0.66146,-0.945145 1.08676,0.992188 0.33073,0.425291 0.37775,-0.803063 0.23617,0.661458 0.33072,-0.992188 0.33073,0.566897 0.37828,-0.236167 0.94464,0.613912 z"
       id="path3775"
       inkscape:connector-curvature="0" />
  </g>
</svg>
