<?xml version="1.0" encoding="UTF-8"?>
<!-- Created with Inkscape (http://www.inkscape.org/) -->
<svg width="196.13mm" height="43.062mm" version="1.1" viewBox="0 0 196.13 43.062" xmlns="http://www.w3.org/2000/svg" xmlns:cc="http://creativecommons.org/ns#" xmlns:dc="http://purl.org/dc/elements/1.1/" xmlns:rdf="http://www.w3.org/1999/02/22-rdf-syntax-ns#">
 <metadata>
  <rdf:RDF>
   <cc:Work rdf:about="">
    <dc:format>image/svg+xml</dc:format>
    <dc:type rdf:resource="http://purl.org/dc/dcmitype/StillImage"/>
    <dc:title/>
   </cc:Work>
  </rdf:RDF>
 </metadata>
 <g transform="translate(-6.789 -7.3376)">
  <path d="m202.41 7.47-194.09 0.18913h-1.3229l-0.070797 40.444 1.4175-0.82682 1.4407 0.77978 1.465 1.1338 1.1808-0.94517 1.6536-0.9684 2.3151 0.92138 1.0397-0.73226 1.0392 0.70847 2.3626-0.28318 0.66146-0.23667 0.30696 0.85058 1.1338-0.37775 1.5358 1.3229 0.82682 0.80306 0.87385-0.23617 0.11834-0.35452-0.25993-0.18912-0.23616-0.49609 0.68471-0.75602 0.92139-0.33023 0.25993-0.5674 1.1338 0.54364 0.66146 0.51985 0.18914 0.54314 1.2759-0.33073 0.68471-1.5829 1.3937 1.4413s3.2129 0.85042 3.3311 0.82682c0.11812-0.02363 1.9606-0.80357 1.9606-0.80357l2.1735-0.70848 2.2681 1.0868s2.5038 0.75602 2.5983 0.75602c0.09449 0 1.4883-1.3467 1.4883-1.3467l1.063-0.7085 4.6778 1.4645 0.51986-0.59066 1.0154 0.16536 0.8506 0.73224 1.2521-0.68522 0.61392-0.6377 1.1813 1.1338 0.80305-0.16536 1.0868-0.30697 1.1813 0.47233 0.94516 0.51985 0.80305-0.54311s1.1101-0.28371 1.2046-0.28371c0.09449 0 1.016 0.35452 1.016 0.35452l1.5353 0.28318 0.89814-0.87384 1.1808-1.2759 1.819 0.68522 1.3229 0.89762 1.1813-0.35449 1.5121-0.09406 1.2521-0.23617 1.1576-0.77978 1.9368 0.49609 1.9606 1.2046 0.33073-1.0392 2.1973 0.18912 0.92139 0.92138 1.4883-0.5674 0.21239-0.23617 0.59066 0.6382 1.2046-0.40203 0.80357-0.54311 0.82682-0.51988 1.0392 0.87437 0.54363-0.44908 1.063-0.25993 1.1808 0.77981 0.94516 0.21238 0.4253-0.70848 0.3545-0.54364 1.2284 0.09456 0.89762 0.54364 0.87385-0.54364 0.73226-0.42529 0.89814 0.75602 1.5353 0.51988 1.6299-1.1338 2.1027 0.47233 0.37775-0.6377s1.134 0.21228 1.2521 0.28318c0.11811 0.07088 1.2051 0.37828 1.2051 0.37828l0.35398-0.61444 0.96894 0.18915 0.21239-0.40153 1.0392 1.0868 1.465-0.23667 0.82682 0.37828 1.11-0.16536 0.85059-0.61444 1.0961 0.35555 0.38396-0.2341 0.41754 0.41754 0.53485-0.18344 0.16692-0.4346 0.23358 0.35089 0.6351 0.45112 1.0521-0.56793 1.0025 0.31732 1.0356-0.30078 1.2025-0.31729s0.48458 0.80171 0.60151 0.88522c0.11693 0.08353 0.60152-0.18344 0.60152-0.18344l1.2862-0.2005 1.0356 0.33382 0.78496-0.81857 0.78497 0.46768s0.81893 0.50146 0.93586 0.53486c0.11693 0.03342 0.63459-0.48472 0.63459-0.48472l1.0356-0.30078s0.75159 0.33422 0.83509 0.40103c0.0835 0.06683 0.73489 0.18396 0.88522 0.18396 0.15034 0 0.41806-0.55139 0.41806-0.55139l0.78497 0.2341 0.90175 0.31729 0.96893-0.61807 0.5178 0.61807 1.186 0.1669 0.65164-0.81854 0.65164-0.30075 0.43408 0.50125 0.76843 0.46768 0.48472-0.401 0.33383 0.3674 0.55139 0.05014 0.50126 0.55139 0.56792-0.20053 0.0832 0.25064 0.41755-0.06665 0.6351-0.60153 0.53433-0.3674 0.53434-0.46768 0.28422 0.48421 0.30076-0.50075 0.66817 0.93533-0.10025-0.91879 0.56793 1.002 0.35088-0.30025 0.36742-0.38447 0.0331-0.35089 0.38447 0.73536 0.73484 0.43408-0.23358-0.48419 0.4005 0.28369 0.28422-0.98547 0.70176 0.51782 0.50075-0.51782 1.6872 0.68472 0.43357-0.46199 0.85059 0.75552 0.51935-0.5669 0.89762-0.61391 0.709 0.66146 0.75603 0.5669 0.47232-1.1338 0.70848 0.42479 0.23668 0.5674 0.42478-0.61442 1.3705 0.61442 0.4253-0.5674 0.99219 0.85058 0.61391-0.99219 0.94516 0.80306 0.61392-0.85008 1.1813 0.5669 0.47233-0.5669-0.18862 1.0868 0.89762-1.0868 1.1338 1.1808-0.047-0.75552 0.47232 0.7085 0.8506-0.85061 1.2284 0.85061 0.56689-0.85061 0.51986 0.709v-0.5669l1.6061 0.89763 0.8506-0.51985 1.3229 0.75602 1.0868-0.94517 0.51987 0.85061 1.1338-1.0392 0.61391 0.85008 0.47284-0.51935 0.47233 0.66146 0.37775-0.80357 0.709 0.75602-0.14159-1.0392 1.0862 1.3229 0.0475-0.47284 0.4253 0.47284 1.3229-1.1343 1.2754 0.80357 0.80356-0.66146 0.51935 0.61391-0.094-0.70848 1.2754 1.0392 0.85059-0.94464 0.47232 0.75602 0.94516-0.709 0.66146 0.37828 0.56689-0.75602 0.61392 0.42529 0.37827-0.42529 1.0392 0.61391-0.1416-0.33073 1.512 0.99219 0.99219-1.1338 0.4253 0.47231 0.56689-0.47231 0.75603 0.80304 0.94464-0.61391 0.75603 0.66146 0.42529-0.85058 0.4253 0.28369 0.51935-0.709 0.75603 0.37827 0.37826 0.66146 0.66146-0.94514 1.0868 0.99219 0.33073 0.42529 0.37775-0.80306 0.23617 0.66146 0.33072-0.99219 0.33073 0.5669 0.37828-0.23617 0.94464 0.61391z" fill="#fff" stroke="#fff" stroke-width=".26458px"/>
 </g>
</svg>
