<?xml version="1.0" encoding="UTF-8" standalone="no"?>
<!-- Created with Inkscape (http://www.inkscape.org/) -->

<svg
   xmlns:dc="http://purl.org/dc/elements/1.1/"
   xmlns:cc="http://creativecommons.org/ns#"
   xmlns:rdf="http://www.w3.org/1999/02/22-rdf-syntax-ns#"
   xmlns:svg="http://www.w3.org/2000/svg"
   xmlns="http://www.w3.org/2000/svg"
   xmlns:sodipodi="http://sodipodi.sourceforge.net/DTD/sodipodi-0.dtd"
   xmlns:inkscape="http://www.inkscape.org/namespaces/inkscape"
   width="210mm"
   height="297mm"
   viewBox="0 0 210 297"
   version="1.1"
   id="svg8"
   inkscape:version="0.92.4 (5da689c313, 2019-01-14)"
   sodipodi:docname="rip.svg">
  <defs
     id="defs2" />
  <sodipodi:namedview
     id="base"
     pagecolor="#ffffff"
     bordercolor="#666666"
     borderopacity="1.0"
     inkscape:pageopacity="0.0"
     inkscape:pageshadow="2"
     inkscape:zoom="1.4"
     inkscape:cx="454.44846"
     inkscape:cy="542.41945"
     inkscape:document-units="mm"
     inkscape:current-layer="layer1"
     showgrid="false"
     inkscape:window-width="1920"
     inkscape:window-height="1017"
     inkscape:window-x="1272"
     inkscape:window-y="-8"
     inkscape:window-maximized="1" />
  <metadata
     id="metadata5">
    <rdf:RDF>
      <cc:Work
         rdf:about="">
        <dc:format>image/svg+xml</dc:format>
        <dc:type
           rdf:resource="http://purl.org/dc/dcmitype/StillImage" />
        <dc:title></dc:title>
      </cc:Work>
    </rdf:RDF>
  </metadata>
  <g
     inkscape:label="Layer 1"
     inkscape:groupmode="layer"
     id="layer1">
    <path
       style="fill:none;stroke:#000000;stroke-width:0.26458332px;stroke-linecap:butt;stroke-linejoin:miter;stroke-opacity:1"
       d="M 0.18898809,202.88393 3.7797618,201.75 l 2.078869,1.70089 5.8586312,-2.64583 1.700893,-0.37798 v 1.88988 l 2.834821,-1.88988 1.511905,1.13393 1.511905,0.18899 2.834821,-1.32292 h 3.96875 l 1.511903,1.51191 0.944941,0.56696 2.645834,-0.56696 2.834822,-1.88989 5.480653,1.88989 4.535715,1.88988 2.078869,-3.2128 4.346728,0.56696 4.913688,2.07887 5.480656,-1.88988 4.157739,1.88988 2.83482,-1.13393 4.157739,-0.37797 4.346726,-1.51191 3.212798,2.45685 0.377976,-2.64584 1.511903,2.64584 1.700893,1.13393 3.779763,-1.51191 2.456844,-1.5119 2.456847,1.88988 6.80357,-1.32292 1.700896,-1.70089 2.26785,1.88988 1.7009,1.5119 1.70089,-1.70089 2.83482,0.37798 1.70089,-1.7009 1.51191,1.7009 3.96875,-2.07887 6.23661,2.64583 5.10267,-3.02381 1.32292,2.26786 0.56697,-3.02381 3.77976,1.88988 2.64583,1.88988 1.13393,-1.70089 1.32292,0.94494 2.07886,-0.94494 1.32292,0.94494 3.02381,-1.88988 0.94494,0.94494 3.2128,-0.94494 1.32292,2.45684 4.34672,-2.07887 3.59078,2.83483 5.29166,-2.07887 0.94494,-1.7009 1.32292,1.7009 0.94494,-1.7009 1.5119,1.7009 4.9137,-1.7009 0.56696,1.88988 5.85863,2.45685 0.56696,-1.88988 2.26786,-0.18899 v -1.32292 l 2.45685,1.7009 4.7247,-2.07887 2.45684,2.07887 1.88989,-1.88988 2.83482,1.70089 2.45684,-0.94494 1.88988,1.88988 2.07887,-1.70089 3.40179,2.07887 2.26785,-1.7009 0.75596,3.40179"
       id="path3715"
       inkscape:connector-curvature="0" />
    <path
       style="fill:none;stroke:#000000;stroke-width:0.26458332px;stroke-linecap:butt;stroke-linejoin:miter;stroke-opacity:1"
       d="M 0.18898809,202.88393 0.37797618,155.44791 H 210.15476 l -0.75595,49.13691"
       id="path3717"
       inkscape:connector-curvature="0" />
  </g>
</svg>
