<?xml version="1.0" encoding="UTF-8" standalone="no"?>
<!-- Created with Inkscape (http://www.inkscape.org/) -->

<svg
   xmlns:dc="http://purl.org/dc/elements/1.1/"
   xmlns:cc="http://creativecommons.org/ns#"
   xmlns:rdf="http://www.w3.org/1999/02/22-rdf-syntax-ns#"
   xmlns:svg="http://www.w3.org/2000/svg"
   xmlns="http://www.w3.org/2000/svg"
   xmlns:sodipodi="http://sodipodi.sourceforge.net/DTD/sodipodi-0.dtd"
   xmlns:inkscape="http://www.inkscape.org/namespaces/inkscape"
   width="210mm"
   height="297mm"
   viewBox="0 0 210 297"
   version="1.1"
   id="svg8"
   sodipodi:docname="rip.svg"
   inkscape:version="0.92.4 (5da689c313, 2019-01-14)">
  <defs
     id="defs2" />
  <sodipodi:namedview
     id="base"
     pagecolor="#ffffff"
     bordercolor="#666666"
     borderopacity="1.0"
     inkscape:pageopacity="0.0"
     inkscape:pageshadow="2"
     inkscape:zoom="1.4"
     inkscape:cx="450.92953"
     inkscape:cy="407.38272"
     inkscape:document-units="mm"
     inkscape:current-layer="layer1"
     showgrid="false"
     inkscape:window-width="1920"
     inkscape:window-height="1017"
     inkscape:window-x="1272"
     inkscape:window-y="-8"
     inkscape:window-maximized="1" />
  <metadata
     id="metadata5">
    <rdf:RDF>
      <cc:Work
         rdf:about="">
        <dc:format>image/svg+xml</dc:format>
        <dc:type
           rdf:resource="http://purl.org/dc/dcmitype/StillImage" />
      </cc:Work>
    </rdf:RDF>
  </metadata>
  <g
     inkscape:label="Layer 1"
     inkscape:groupmode="layer"
     id="layer1">
    <path
       style="fill:none;stroke:#000000;stroke-width:0.26458332px;stroke-linecap:butt;stroke-linejoin:miter;stroke-opacity:1"
       d="m 0.56696428,204.39583 3.59077372,-1.13393 2.078869,1.70089 5.858631,-2.64583 1.700893,-0.37798 v 1.88988 l 2.834821,-1.88988 1.511905,1.13393 1.511905,0.18899 2.834821,-1.32292 h 3.96875 l 1.511903,1.51191 0.944941,0.56696 2.645834,-0.56696 2.834822,-1.88989 5.480653,1.88989 4.535715,1.88988 2.078869,-3.2128 4.346728,0.56696 4.913688,2.07887 5.480656,-1.88988 4.157739,1.88988 2.83482,-1.13393 4.157739,-0.37797 4.346726,-1.51191 3.212798,2.45685 0.377976,-2.64584 1.511903,2.64584 1.700893,1.13393 3.779763,-1.51191 2.456844,-1.5119 2.456847,1.88988 6.80357,-1.32292 1.7009,-1.70089 2.26785,1.88988 1.7009,1.5119 1.70089,-1.70089 2.83482,0.37798 1.70089,-1.7009 1.51191,1.7009 3.96875,-2.07887 6.23661,2.64583 5.10267,-3.02381 1.32292,2.26786 0.56697,-3.02381 3.77976,1.88988 2.64583,1.88988 1.13393,-1.70089 1.32292,0.94494 2.07886,-0.94494 1.32292,0.94494 3.02381,-1.88988 0.94494,0.94494 3.2128,-0.94494 1.32292,2.45684 4.34672,-2.07887 3.59078,2.83483 5.29166,-2.07887 0.94494,-1.7009 1.32292,1.7009 0.94494,-1.7009 1.5119,1.7009 4.9137,-1.7009 0.56696,1.88988 5.85863,2.45685 0.56696,-1.88988 2.26786,-0.18899 V 201.561 l 2.45685,1.7009 4.7247,-2.07887 2.45684,2.07887 1.88989,-1.88988 2.83482,1.70089 2.45684,-0.94494 1.88988,1.88988 2.07887,-1.70089 3.40179,2.07887 2.26785,-1.7009 0.75596,3.40179"
       id="path3715"
       inkscape:connector-curvature="0" />
    <path
       style="fill:none;stroke:#000000;stroke-width:0.26458332px;stroke-linecap:butt;stroke-linejoin:miter;stroke-opacity:1"
       d="m 0.56696428,204.39583 0.21191619,-34.30694 208.93794953,-0.46772 0.06,36.47555"
       id="path3727"
       inkscape:connector-curvature="0" />
    <path
       style="fill:none;stroke-width:0.71428573"
       d=""
       id="path3740"
       inkscape:connector-curvature="0"
       transform="scale(0.26458333)" />
    <path
       style="fill:none;stroke-width:0.71428573"
       d="m 160.57239,772.14447 c -3.53572,-1.52852 -11.86989,-4.69764 -18.52039,-7.0425 l -12.09182,-4.26337 -5.52632,3.62814 c -4.85887,3.18993 -11.03201,5.54323 -14.80736,5.64478 -0.52023,0.014 -2.79929,-1.74241 -5.06458,-3.90312 l -4.1187,-3.92858 h -7.660797 c -7.287007,0 -7.928635,0.12465 -13.149707,2.55456 -6.614911,3.0786 -9.405838,2.99187 -13.721837,-0.42647 l -2.899956,-2.29681 -4.969267,3.30434 -4.969268,3.30434 v -3.21998 c 0,-1.77098 -0.194675,-3.21998 -0.432611,-3.21998 -2.229986,0 -10.311328,2.92455 -18.748463,6.78487 l -10.252501,4.69092 -3.861859,-3.29929 -3.861859,-3.29929 -6.5304884,2.19022 -6.5304878,2.1902 0.5209372,-63.73109 c 0.2865154,-35.0521 0.6088248,-63.81898 0.7162432,-63.9264 0.3496767,-0.34967 786.7818708,-1.89461 787.1301508,-1.54631 0.186,0.18599 0.43743,29.25401 0.55886,64.5956 0.13336,38.84172 -0.0314,63.06102 -0.41657,61.23257 -0.35043,-1.66367 -0.85693,-3.02485 -1.1255,-3.02485 -0.26857,0 -2.38614,1.4197 -4.70571,3.15489 -2.3195,1.73519 -4.54515,2.96248 -4.94586,2.72729 -0.40072,-0.23518 -3.246,-1.99505 -6.32293,-3.91082 l -5.59429,-3.48321 -3.90692,3.01413 -3.90686,3.01413 -3.41857,-3.36714 -3.4185,-3.36714 -4.84579,1.82393 -4.84571,1.82394 -5.38565,-3.26968 -5.38557,-3.26967 -3.59307,3.59304 -3.593,3.59305 -4.47821,-3.93164 -4.47822,-3.93163 -9.05007,3.96041 -9.05009,3.9604 -4.49842,-3.21 c -2.47412,-1.7655 -4.68188,-3.21 -4.90612,-3.21 -0.22425,0 -0.40773,1.11044 -0.40773,2.46764 0,2.62396 -0.43124,2.84328 -6.71536,3.41518 -1.8002,0.16383 -2.19951,0.62619 -3.03911,3.519 l -0.96661,3.3304 -10.52543,-4.46206 -10.52542,-4.46206 -0.98033,-3.51119 c -0.53919,-1.93116 -1.04784,-3.58819 -1.13036,-3.68229 -0.0825,-0.0941 -4.37009,1.24433 -9.52793,2.97428 l -9.3779,3.14537 -2.95624,-3.20714 c -1.62593,-1.76393 -3.13841,-3.02497 -3.36106,-2.80232 -0.22265,0.22265 -1.10903,1.57164 -1.96973,2.99776 l -1.5649,2.59294 -2.07266,-2.92821 c -1.13997,-1.61053 -2.2952,-2.93509 -2.56718,-2.94348 -0.27198,-0.008 -1.35735,1.51154 -2.41192,3.37761 -1.88581,3.33692 -2.07569,3.45458 -11.51734,7.13667 l -9.59991,3.74382 -6.77748,-5.3956 -6.77746,-5.3956 -8.11368,3.9015 -8.11367,3.90151 -2.31091,-4.39258 c -1.27099,-2.41591 -2.39189,-4.49482 -2.49088,-4.61979 -0.099,-0.12496 -2.85122,0.59313 -6.11605,1.59577 l -5.93605,1.82298 -1.9465,-1.86487 -1.94651,-1.86487 -5.89925,3.63998 -5.89924,3.63997 -2.37315,-1.81008 -2.37315,-1.81009 -4.01729,1.83917 -4.01729,1.83918 -2.50837,-1.91323 c -2.77768,-2.11864 -2.7847,-2.11551 -5.94392,2.64817 l -1.15595,1.74303 -4.20119,-3.04537 c -4.90248,-3.55371 -19.34757,-11.08995 -20.22146,-10.54985 -0.32916,0.20342 -0.81925,2.13691 -1.08909,4.29662 -0.26984,2.15972 -0.72675,4.0727 -1.01535,4.25106 -0.2886,0.17837 -1.30681,-1.10735 -2.26267,-2.85714 -1.13469,-2.07717 -2.08765,-3.04725 -2.74545,-2.79483 -0.55413,0.21264 -4.41522,2.42621 -8.58019,4.91906 -4.16498,2.49284 -8.2501,4.88215 -9.07805,5.30958 -1.25507,0.64793 -3.44058,-0.0485 -13.1441,-4.18867 l -11.63873,-4.96582 -7.36976,3.84876 -7.36976,3.84875 -2.96001,-3.21124 -2.96001,-3.21123 -3.38845,3.33749 -3.38843,3.33748 -5.28055,-0.73505 -5.28055,-0.73505 -3.27545,3.21986 c -2.9858,2.93512 -3.36312,3.11423 -4.26675,2.02543 -0.5452,-0.65694 -3.83766,-3.60935 -7.31657,-6.56091 l -6.32528,-5.36648 -3.46115,3.4091 -3.46115,3.4091 -12.60032,2.43021 -12.60033,2.43021 -4.62626,-3.63563 -4.62625,-3.63563 -5.14881,3.11367 c -2.83185,1.71252 -8.13705,4.30501 -11.78931,5.7611 l -6.64049,2.64741 -3.13081,-2.15405 c -2.24889,-1.54727 -3.99213,-3.71348 -6.18846,-7.68994 -3.40553,-6.16574 -3.13622,-6.26887 -4.67596,1.79058 l -0.58094,3.04076 -5.45925,-4.2677 -5.45924,-4.26769 -8.46933,2.85853 c -6.22591,2.10135 -10.55057,3.06404 -16.32646,3.63437 -5.60074,0.55303 -9.3639,1.37218 -13.10388,2.85238 l -5.24674,2.07654 -7.78002,-3.54327 -7.78002,-3.54326 -10.5432,3.53205 -10.54321,3.53206 -8.98283,-3.86009 c -7.27965,-3.12819 -10.25942,-4.01653 -15.71575,-4.68525 -3.70311,-0.45384 -7.56678,-0.98516 -8.58594,-1.18071 -1.66035,-0.31857 -2.24684,0.24433 -5.64068,5.41378 -2.08323,3.17312 -3.9815,5.8718 -4.21842,5.99707 -0.23691,0.12525 -3.3236,-1.02287 -6.85931,-2.5514 z"
       id="path3742"
       inkscape:connector-curvature="0"
       transform="scale(0.26458333)" />
  </g>
</svg>
