<?xml version="1.0" encoding="UTF-8" standalone="no"?>
<!-- Created with Inkscape (http://www.inkscape.org/) -->

<svg
   xmlns:dc="http://purl.org/dc/elements/1.1/"
   xmlns:cc="http://creativecommons.org/ns#"
   xmlns:rdf="http://www.w3.org/1999/02/22-rdf-syntax-ns#"
   xmlns:svg="http://www.w3.org/2000/svg"
   xmlns="http://www.w3.org/2000/svg"
   xmlns:sodipodi="http://sodipodi.sourceforge.net/DTD/sodipodi-0.dtd"
   xmlns:inkscape="http://www.inkscape.org/namespaces/inkscape"
   width="210mm"
   height="297mm"
   viewBox="0 0 210 297"
   version="1.1"
   id="svg8"
   sodipodi:docname="rip.svg"
   inkscape:version="0.92.4 (5da689c313, 2019-01-14)">
  <defs
     id="defs2" />
  <sodipodi:namedview
     id="base"
     pagecolor="#ffffff"
     bordercolor="#666666"
     borderopacity="1.0"
     inkscape:pageopacity="0.0"
     inkscape:pageshadow="2"
     inkscape:zoom="3.959798"
     inkscape:cx="238.35014"
     inkscape:cy="442.02163"
     inkscape:document-units="mm"
     inkscape:current-layer="layer1"
     showgrid="false"
     inkscape:window-width="1920"
     inkscape:window-height="1017"
     inkscape:window-x="1272"
     inkscape:window-y="-8"
     inkscape:window-maximized="1" />
  <metadata
     id="metadata5">
    <rdf:RDF>
      <cc:Work
         rdf:about="">
        <dc:format>image/svg+xml</dc:format>
        <dc:type
           rdf:resource="http://purl.org/dc/dcmitype/StillImage" />
      </cc:Work>
    </rdf:RDF>
  </metadata>
  <g
     inkscape:label="Layer 1"
     inkscape:groupmode="layer"
     id="layer1">
    <path
       style="fill:none;stroke:#000000;stroke-width:0.26458332px;stroke-linecap:butt;stroke-linejoin:miter;stroke-opacity:1"
       d="M 0.18898809,202.88393 3.7797618,201.75 l 2.078869,1.70089 5.8586312,-2.64583 1.700893,-0.37798 v 1.88988 l 2.834821,-1.88988 1.511905,1.13393 1.511905,0.18899 2.834821,-1.32292 h 3.96875 l 1.511903,1.51191 0.944941,0.56696 2.645834,-0.56696 2.834822,-1.88989 5.480653,1.88989 4.535715,1.88988 2.078869,-3.2128 4.346728,0.56696 4.913688,2.07887 5.480656,-1.88988 4.157739,1.88988 2.83482,-1.13393 4.157739,-0.37797 4.346726,-1.51191 3.212798,2.45685 0.377976,-2.64584 1.511903,2.64584 1.700893,1.13393 3.779763,-1.51191 2.456844,-1.5119 2.456847,1.88988 6.80357,-1.32292 1.700896,-1.70089 2.26785,1.88988 1.7009,1.5119 1.70089,-1.70089 2.83482,0.37798 1.70089,-1.7009 1.51191,1.7009 3.96875,-2.07887 6.23661,2.64583 5.10267,-3.02381 1.32292,2.26786 0.56697,-3.02381 3.77976,1.88988 2.64583,1.88988 1.13393,-1.70089 1.32292,0.94494 2.07886,-0.94494 1.32292,0.94494 3.02381,-1.88988 0.94494,0.94494 3.2128,-0.94494 1.32292,2.45684 4.34672,-2.07887 3.59078,2.83483 5.29166,-2.07887 0.94494,-1.7009 1.32292,1.7009 0.94494,-1.7009 1.5119,1.7009 4.9137,-1.7009 0.56696,1.88988 5.85863,2.45685 0.56696,-1.88988 2.26786,-0.18899 v -1.32292 l 2.45685,1.7009 4.7247,-2.07887 2.45684,2.07887 1.88989,-1.88988 2.83482,1.70089 2.45684,-0.94494 1.88988,1.88988 2.07887,-1.70089 3.40179,2.07887 2.26785,-1.7009 0.75596,3.40179"
       id="path3715"
       inkscape:connector-curvature="0" />
    <path
       style="fill:none;stroke:#000000;stroke-width:0.26458332px;stroke-linecap:butt;stroke-linejoin:miter;stroke-opacity:1"
       d="m 0.18898809,202.88393 0.21191619,-34.30694 208.93794572,-0.46772 0.06,36.47555"
       id="path3727"
       inkscape:connector-curvature="0" />
    <path
       style="fill:#ffffff;stroke-width:0.25253814"
       d="m 157.91674,766.16928 c -8.02924,-3.36882 -28.87713,-10.83312 -29.54319,-10.57752 -0.16949,0.065 -2.68298,1.6923 -5.58553,3.61614 l -5.27738,3.49789 -4.75441,0.99104 -4.75442,0.99103 -1.18023,-0.61551 c -0.64913,-0.33854 -2.66602,-2.06446 -4.48198,-3.83538 l -3.301741,-3.21986 h -7.95365 -7.953651 l -5.159584,2.42441 -5.159587,2.42442 -2.65165,-0.30403 -2.65165,-0.30404 -2.891863,-2.16247 c -1.590523,-1.18936 -3.013224,-2.16247 -3.161557,-2.16247 -0.148334,0 -2.511957,1.4977 -5.252493,3.32823 l -4.982797,3.32823 v -3.42943 c 0,-3.14589 -0.03654,-3.41898 -0.441942,-3.30308 -0.243068,0.0695 -1.844248,0.43225 -3.558176,0.80613 -2.840537,0.61965 -4.002341,1.08098 -13.131984,5.21455 -5.508662,2.49413 -10.439222,4.70724 -10.956802,4.91803 l -0.941054,0.38326 -3.478363,-2.83948 c -1.9131,-1.56171 -3.657115,-2.99291 -3.875589,-3.18043 -0.339704,-0.29158 -1.338236,-0.0445 -6.8956824,1.70609 -3.5741516,1.12588 -6.5234813,2.00601 -6.5540658,1.95585 -0.1431379,-0.23477 0.7378263,-127.72998 0.8835936,-127.87575 0.091454,-0.0914 44.1272676,-0.26861 97.8573676,-0.39368 275.36444,-0.64098 325.64279,-0.75281 408.75541,-0.90917 l 90.09349,-0.16949 -0.0636,64.48367 -0.0636,64.48367 -0.79636,0.32494 -0.79633,0.32494 -6.69913,-5.29407 c -3.6845,-2.91173 -6.81272,-5.29406 -6.95156,-5.29406 -0.13887,0 -3.80858,1.70209 -8.15494,3.78242 -4.34636,2.08033 -7.98584,3.69906 -8.08771,3.59716 -0.1019,-0.10189 -1.22617,-2.11649 -2.49838,-4.4769 -1.27222,-2.3604 -2.34924,-4.33141 -2.39338,-4.38003 -0.0442,-0.0486 -2.8353,0.72417 -6.20252,1.71727 l -6.12223,1.80565 -1.83315,-1.82091 -1.83315,-1.82091 -5.71761,3.57386 -5.71762,3.57385 -2.47901,-1.76991 -2.47899,-1.76991 -3.93783,1.78626 -3.9378,1.78627 -2.49586,-1.78194 c -1.3727,-0.98006 -2.56634,-1.78193 -2.65254,-1.78193 -0.0862,0 -1.09864,1.41033 -2.24988,3.13407 l -2.09319,3.13406 -4.7537,-3.39852 c -4.31315,-3.08355 -5.45175,-3.74767 -12.28535,-7.16596 l -7.53165,-3.76743 -0.2514,1.19084 c -0.13829,0.65496 -0.56003,2.89547 -0.93725,4.97891 -0.37719,2.08344 -0.75599,3.86801 -0.84178,3.96571 -0.0858,0.0977 -1.11157,-1.46996 -2.27951,-3.4837 -1.16794,-2.01374 -2.25072,-3.61254 -2.40618,-3.55288 -0.15547,0.0597 -4.52268,2.62169 -9.70497,5.69341 -5.18226,3.07172 -9.53549,5.58495 -9.67383,5.58495 -0.13834,0 -5.48394,-2.21798 -11.87911,-4.92883 l -11.62759,-4.92883 -7.25754,3.79241 c -3.99165,2.08582 -7.36601,3.7924 -7.49857,3.7924 -0.20503,0 -4.09993,-4.22744 -5.43439,-5.8984 -0.42937,-0.53761 -0.45545,-0.51827 -3.81209,2.82539 l -3.37977,3.36671 -5.34969,-0.70403 -5.34969,-0.70403 -3.10377,3.09633 -3.10377,3.09632 -2.70865,-2.41346 c -2.8408,-2.53122 -11.40419,-9.74007 -11.9945,-10.09724 -0.24357,-0.14738 -1.30767,0.75143 -3.6618,3.09299 l -3.31845,3.30074 -12.63509,2.45306 -12.63512,2.45307 -4.41121,-3.40108 c -2.42618,-1.87059 -4.5572,-3.48856 -4.73559,-3.59549 -0.20479,-0.12275 -2.09637,0.89462 -5.13193,2.76017 -4.42442,2.71906 -5.35851,3.17525 -11.71886,5.72316 l -6.91126,2.7686 -3.09003,-2.10423 -3.09003,-2.10424 -3.14059,-5.50685 c -1.72731,-3.02877 -3.18456,-5.46289 -3.23827,-5.40915 -0.0537,0.0537 -0.38916,2.19089 -0.74539,4.74923 -0.35623,2.55835 -0.72587,4.84855 -0.82138,5.08934 -0.14355,0.36181 -1.14602,-0.30657 -5.77618,-3.85121 -3.08137,-2.35895 -5.75196,-4.28889 -5.93465,-4.28876 -0.18268,1.3e-4 -3.91189,1.25743 -8.28711,2.79401 l -7.95495,2.79378 -8.05165,0.75434 -8.05168,0.75434 -5.23511,2.09694 -5.23514,2.09694 -7.67387,-3.49352 c -4.22064,-1.92144 -7.84489,-3.49586 -8.05389,-3.49872 -0.20901,-0.003 -4.94958,1.57477 -10.53461,3.50586 l -10.15459,3.51105 -9.19845,-3.89254 -9.19844,-3.89255 -7.79361,-1.00526 c -4.28649,-0.5529 -8.09747,-1.05851 -8.46886,-1.12358 -0.63708,-0.11163 -0.89204,0.21674 -4.50948,5.8079 -2.10882,3.25942 -3.90733,5.96334 -3.9967,6.00871 -0.0894,0.0454 -3.79903,-1.4433 -8.2437,-3.30815 z"
       id="path3729"
       inkscape:connector-curvature="0"
       transform="scale(0.26458333)" />
    <path
       style="fill:#ffffff;stroke-width:0.25253814"
       d="m 158.16928,766.29612 c -7.17291,-2.98463 -14.80633,-5.80823 -25.57957,-9.4619 l -4.11382,-1.39517 -5.42521,3.60887 -5.42521,3.60887 -4.47262,0.96823 c -2.45994,0.53253 -4.68694,0.96823 -4.94888,0.96823 -0.96869,0 -3.39994,-1.82075 -6.22031,-4.65835 l -2.900069,-2.91779 H 91.14285 83.202107 l -5.195359,2.42553 -5.195361,2.42553 -2.65165,-0.3102 -2.65165,-0.31019 -2.997684,-2.17847 c -1.648725,-1.19816 -3.101895,-2.14865 -3.229265,-2.1122 -0.127371,0.0364 -2.443373,1.54362 -5.146672,3.34927 l -4.915089,3.28301 v -3.42943 c 0,-3.14862 -0.03619,-3.4185 -0.441942,-3.29592 -0.243068,0.0734 -1.789291,0.43284 -3.436049,0.79871 -3.531885,0.78468 -2.327679,0.30256 -14.900174,5.96545 -5.536081,2.49356 -10.195409,4.47779 -10.354064,4.40942 -0.158655,-0.0684 -1.879454,-1.43705 -3.823998,-3.0415 -1.944544,-1.60444 -3.762818,-2.91931 -4.04061,-2.92193 -0.277792,-0.003 -3.215975,0.84721 -6.529296,1.8885 -3.3133208,1.04129 -6.0975538,1.8933 -6.1871844,1.89335 -0.1774909,1.2e-4 -0.1614846,-4.16011 0.2999422,-77.95854 0.1712583,-27.39024 0.3819063,-49.87097 0.4681067,-49.95717 0.0862,-0.0862 42.8119025,-0.25987 94.9460035,-0.38593 196.661138,-0.47554 319.182748,-0.74884 409.010328,-0.91238 l 92.74514,-0.16884 -0.0636,64.48348 -0.0636,64.48347 -0.8054,0.32863 -0.80539,0.32863 -6.39195,-5.0637 c -3.51555,-2.78504 -6.61922,-5.17429 -6.89701,-5.30945 -0.40972,-0.19934 -2.00538,0.47082 -8.45177,3.54965 -4.37068,2.08746 -8.02935,3.71212 -8.13034,3.61035 -0.10099,-0.10176 -1.2287,-2.11694 -2.50604,-4.47817 -1.27731,-2.36124 -2.35242,-4.32971 -2.38914,-4.37439 -0.0367,-0.0447 -2.82277,0.73028 -6.19122,1.72214 l -6.12448,1.80336 -1.83805,-1.82577 -1.83805,-1.82578 -5.72686,3.57963 -5.72683,3.57963 -2.47606,-1.7678 -2.47606,-1.76781 -3.92591,1.79476 -3.9259,1.79476 -2.51879,-1.79831 c -1.38533,-0.98907 -2.5815,-1.79831 -2.65817,-1.79831 -0.0766,0 -1.085,1.41586 -2.24077,3.14635 l -2.1014,3.14635 -4.77615,-3.41087 c -4.29767,-3.06917 -5.5277,-3.78905 -12.27848,-7.18595 l -7.50238,-3.77509 -0.26284,1.32482 c -0.14455,0.72865 -0.55535,2.91581 -0.91287,4.86036 -0.35755,1.94454 -0.7084,3.70414 -0.77974,3.91022 -0.0784,0.22647 -0.91512,-0.96082 -2.11516,-3.00133 -1.092,-1.85682 -2.13657,-3.52152 -2.32125,-3.69935 -0.27519,-0.26498 -2.06382,0.70108 -9.91238,5.35382 -6.83007,4.04896 -9.72716,5.63919 -10.10152,5.54477 -0.2887,-0.0728 -5.62309,-2.29521 -11.85417,-4.93868 l -11.32924,-4.8063 -7.25519,3.78575 c -3.99038,2.08216 -7.368,3.78574 -7.50584,3.78574 -0.13783,0 -1.46778,-1.3637 -2.95543,-3.03045 -1.48765,-1.66676 -2.84034,-3.03046 -3.00596,-3.03046 -0.16564,0 -1.7368,1.43245 -3.49149,3.18322 l -3.19029,3.18322 -5.34823,-0.70536 -5.34822,-0.70535 -3.11044,3.10296 -3.11041,3.10296 -2.50786,-2.24544 c -2.04071,-1.82717 -10.23274,-8.74275 -12.02541,-10.15164 -0.40502,-0.31832 -0.76302,-0.0392 -3.78746,2.95279 l -3.34017,3.30434 -12.39152,2.41364 c -6.81535,1.32751 -12.53067,2.41364 -12.70072,2.41364 -0.17004,0 -1.98061,-1.28586 -4.02344,-2.85747 -2.04286,-1.57161 -4.12529,-3.16453 -4.62761,-3.53982 l -0.91333,-0.68234 -5.02132,3.01639 c -4.53301,2.72306 -5.67771,3.27833 -11.77105,5.70987 l -6.74972,2.69346 -2.72046,-1.82733 c -1.49624,-1.00504 -2.91086,-1.99151 -3.14357,-2.19216 -0.23272,-0.20064 -1.75635,-2.71294 -3.38588,-5.58287 -1.62953,-2.86993 -3.00172,-5.26541 -3.0493,-5.32328 -0.24706,-0.30054 -0.4406,0.60172 -1.07415,5.00722 -0.38105,2.64969 -0.74281,4.86761 -0.80392,4.92872 -0.0611,0.0611 -2.65075,-1.81328 -5.75472,-4.16532 -3.10397,-2.35204 -5.75327,-4.27644 -5.88734,-4.27644 -0.13408,0 -3.84285,1.25768 -8.24169,2.79484 l -7.9979,2.79483 -8.05165,0.75352 -8.05168,0.75352 -5.24612,2.10135 -5.24614,2.10135 -7.78905,-3.52938 -7.78906,-3.52937 -1.38904,0.43401 c -0.76398,0.23871 -5.454,1.83301 -10.42227,3.54288 l -9.03321,3.10886 -9.19614,-3.8939 -9.19614,-3.89389 -8.28715,-1.09945 -8.28715,-1.09944 -0.53886,0.52969 c -0.29638,0.29133 -2.09628,2.94409 -3.99978,5.89501 -1.90351,2.95093 -3.53612,5.4023 -3.62802,5.4475 -0.0919,0.0452 -3.69001,-1.38369 -7.99578,-3.1753 z"
       id="path3731"
       inkscape:connector-curvature="0"
       transform="scale(0.26458333)" />
  </g>
</svg>
